<?xml version="1.0" encoding="iso-8859-1"?>
<!-- Generator: Adobe Illustrator 18.0.0, SVG Export Plug-In . SVG Version: 6.00 Build 0)  -->
<!DOCTYPE svg PUBLIC "-//W3C//DTD SVG 1.1//EN" "http://www.w3.org/Graphics/SVG/1.1/DTD/svg11.dtd">
<svg version="1.1" id="Capa_1" xmlns="http://www.w3.org/2000/svg" xmlns:xlink="http://www.w3.org/1999/xlink" x="0px" y="0px"
	 viewBox="0 0 409.255 409.255" style="enable-background:new 0 0 409.255 409.255;" xml:space="preserve">
<g>
	<g>
		<path style="fill:none;" d="M70.897,222.907c-9.892,12.151-18.53,24.271-25.692,36.145C23.9,294.366,18.26,323.233,29.732,338.249
			c11.472,15.016,40.803,17.166,80.48,5.895c22.28-6.329,46.302-16.433,70.842-29.643c-13.186-8.483-26.336-17.71-39.282-27.601
			C115.352,266.719,91.365,244.997,70.897,222.907z"/>
		<path style="fill:none;" d="M322.525,204.648c-19.889-21.718-43.49-43.189-69.65-63.176
			c-15.775-12.052-32.023-23.175-48.301-33.111c-15.751,9.621-31.918,20.649-48.232,33.111
			c-26.162,19.987-49.765,41.46-69.653,63.18c19.889,21.719,43.491,43.192,69.653,63.18c16.326,12.472,32.504,23.502,48.266,33.127
			c16.146-9.868,32.347-20.966,48.266-33.127C279.036,247.844,302.583,226.449,322.525,204.648z M204.608,258.417
			c-29.647,0-53.767-24.119-53.767-53.767c0-29.646,24.119-53.767,53.767-53.767c29.647,0,53.767,24.12,53.767,53.767
			C258.375,234.298,234.255,258.417,204.608,258.417z"/>
		<path style="fill:none;" d="M338.326,222.916c-20.5,22.142-44.442,43.787-70.883,63.985
			c-12.937,9.885-26.079,19.105-39.257,27.584c45.83,24.62,86.654,36.642,115.078,36.643c17.089,0.002,29.692-4.336,36.219-12.879
			c11.473-15.017,5.833-43.883-15.472-79.197C356.85,247.182,348.215,235.065,338.326,222.916z"/>
		<path style="fill:#73D0F4;" d="M204.608,174.884c-16.413,0-29.767,13.354-29.767,29.767c0,16.413,13.354,29.767,29.767,29.767
			s29.767-13.354,29.767-29.767C234.375,188.238,221.021,174.884,204.608,174.884z"/>
		<path style="fill:#3D6889;" d="M204.608,150.884c-29.647,0-53.767,24.12-53.767,53.767c0,29.647,24.119,53.767,53.767,53.767
			c29.647,0,53.767-24.119,53.767-53.767C258.375,175.004,234.255,150.884,204.608,150.884z M204.608,234.417
			c-16.413,0-29.767-13.354-29.767-29.767c0-16.413,13.354-29.767,29.767-29.767s29.767,13.354,29.767,29.767
			C234.375,221.064,221.021,234.417,204.608,234.417z"/>
		<path style="fill:#3D6889;" d="M354.354,204.65c6.092-7.339,11.79-14.703,17.05-22.06c3.165-4.431,6.184-8.878,8.972-13.222
			c3.58-5.577,1.961-13.001-3.617-16.58c-5.578-3.582-13.001-1.961-16.58,3.616c-2.573,4.009-5.366,8.124-8.3,12.23
			c-4.227,5.912-8.762,11.835-13.572,17.748c-20.465-22.086-44.448-43.803-70.861-63.981c-12.854-9.819-26.023-19.052-39.289-27.578
			c73.398-39.438,133.943-46.526,151.327-23.77c3.827,5.011,5.77,11.628,5.772,19.672c0.003,6.626,5.374,11.995,12,11.995h0.005
			c6.627-0.002,11.998-5.377,11.995-12.004c-0.005-13.427-3.605-24.944-10.7-34.232c-18.038-23.609-55.723-28.727-106.109-14.412
			c-27.605,7.842-57.573,21.007-87.872,38.406c-13.393-7.688-26.753-14.583-39.855-20.529c-6.032-2.737-13.146-0.068-15.887,5.968
			c-2.738,6.035-0.066,13.147,5.969,15.887c8.635,3.919,17.395,8.284,26.207,13.026c-13.171,8.476-26.305,17.692-39.236,27.571
			c-26.419,20.183-50.406,41.905-70.875,63.996c-9.893-12.151-18.53-24.273-25.693-36.146
			c-21.304-35.314-26.943-64.182-15.47-79.198c8.591-11.246,27.833-15.374,54.181-11.618c6.555,0.934,12.638-3.627,13.572-10.188
			c0.935-6.561-3.626-12.638-10.188-13.572c-45.266-6.451-66.665,7.754-76.637,20.809C-7.375,80.091-2.406,117.794,24.653,162.648
			c8.339,13.822,18.507,27.923,30.206,42.004c-11.698,14.082-21.867,28.182-30.205,42.004
			c-27.059,44.854-32.028,82.557-13.993,106.163c11.333,14.835,30.422,22.369,55.548,22.368c14.86,0,31.834-2.636,50.562-7.955
			c27.594-7.84,57.55-20.998,87.837-38.389c30.288,17.391,60.244,30.549,87.839,38.389c18.729,5.32,35.698,7.956,50.561,7.955
			c25.122,0,44.215-7.535,55.547-22.367c18.036-23.607,13.066-61.31-13.992-106.164C376.223,232.832,366.054,218.732,354.354,204.65
			z M110.211,344.145c-39.677,11.271-69.008,9.12-80.48-5.895c-11.472-15.017-5.832-43.883,15.473-79.197
			c7.162-11.873,15.8-23.993,25.692-36.145c20.468,22.09,44.455,43.812,70.874,63.994c12.946,9.891,26.096,19.117,39.282,27.601
			C156.513,327.712,132.492,337.816,110.211,344.145z M156.341,267.831c-26.162-19.987-49.765-41.461-69.653-63.18
			c19.889-21.72,43.491-43.192,69.653-63.18c16.314-12.463,32.481-23.49,48.232-33.111c16.278,9.937,32.525,21.06,48.301,33.111
			c26.16,19.986,49.762,41.458,69.65,63.176c-19.942,21.802-43.489,43.196-69.652,63.184c-15.919,12.161-32.12,23.259-48.266,33.127
			C188.845,291.333,172.667,280.303,156.341,267.831z M379.483,338.249c-6.526,8.543-19.13,12.881-36.219,12.879
			c-28.424-0.001-69.248-12.022-115.078-36.643c13.178-8.479,26.319-17.699,39.257-27.584
			c26.441-20.198,50.383-41.844,70.883-63.985c9.89,12.148,18.525,24.266,25.686,36.136
			C385.316,294.366,390.956,323.233,379.483,338.249z"/>
		<path style="fill:#3D6889;" d="M122.443,68.018c3.16,0,6.25-1.28,8.48-3.52c2.24-2.23,3.52-5.319,3.52-8.48
			c0-3.16-1.279-6.26-3.52-8.489c-2.23-2.23-5.32-3.511-8.48-3.511c-3.16,0-6.25,1.28-8.489,3.511
			c-2.23,2.239-3.511,5.329-3.511,8.489c0,3.16,1.28,6.25,3.511,8.48C116.193,66.738,119.283,68.018,122.443,68.018z"/>
		<path style="fill:#3D6889;" d="M386.823,116.388c-3.159,0-6.25,1.279-8.489,3.51c-2.23,2.24-3.511,5.33-3.511,8.49
			c0,3.16,1.28,6.25,3.511,8.48c2.239,2.239,5.33,3.52,8.489,3.52c3.16,0,6.25-1.28,8.48-3.52c2.24-2.23,3.52-5.32,3.52-8.48
			c0-3.16-1.279-6.25-3.52-8.49C393.073,117.667,389.983,116.388,386.823,116.388z"/>
	</g>
</g>
<g>
</g>
<g>
</g>
<g>
</g>
<g>
</g>
<g>
</g>
<g>
</g>
<g>
</g>
<g>
</g>
<g>
</g>
<g>
</g>
<g>
</g>
<g>
</g>
<g>
</g>
<g>
</g>
<g>
</g>
</svg>
